<?xml version="1.0" standalone="no"?>
<!DOCTYPE svg PUBLIC "-//W3C//DTD SVG 20010904//EN"
 "http://www.w3.org/TR/2001/REC-SVG-20010904/DTD/svg10.dtd">
<svg version="1.0" xmlns="http://www.w3.org/2000/svg"
 width="1024.000000pt" height="1024.000000pt" viewBox="0 0 1024.000000 1024.000000"
 preserveAspectRatio="xMidYMid meet">
<metadata>
Created by potrace 1.11, written by Peter Selinger 2001-2013
</metadata>
<g transform="translate(0.000000,1024.000000) scale(0.100000,-0.100000)"
fill="#000000" stroke="none">
<path d="M4655 10070 c-60 -5 -130 -13 -155 -19 -25 -6 -62 -11 -82 -11 -72 0
-381 -62 -532 -106 -26 -8 -53 -14 -59 -14 -28 0 -419 -127 -527 -171 -94 -39
-174 -73 -251 -108 -25 -12 -51 -21 -57 -21 -7 0 -12 -4 -12 -10 0 -5 -5 -10
-11 -10 -12 0 -102 -40 -109 -49 -3 -3 -25 -16 -50 -28 -111 -55 -293 -162
-298 -175 -2 -4 -9 -8 -16 -8 -7 0 -31 -12 -53 -27 -21 -16 -46 -32 -55 -38
-84 -52 -251 -174 -256 -187 -2 -4 -8 -8 -13 -8 -5 0 -17 -6 -26 -14 -10 -8
-38 -31 -63 -51 -25 -20 -56 -46 -70 -58 -13 -12 -38 -32 -55 -45 -119 -90
-487 -458 -577 -577 -13 -17 -33 -42 -45 -55 -12 -14 -38 -45 -58 -70 -20 -25
-43 -53 -51 -63 -8 -9 -14 -21 -14 -26 0 -5 -4 -11 -8 -13 -13 -5 -135 -172
-187 -256 -5 -9 -22 -34 -38 -55 -15 -22 -27 -46 -27 -53 0 -7 -4 -14 -8 -16
-13 -5 -120 -187 -175 -298 -12 -25 -25 -47 -28 -50 -9 -7 -49 -97 -49 -109 0
-6 -4 -11 -10 -11 -5 0 -10 -5 -10 -12 0 -6 -9 -32 -21 -57 -49 -107 -55 -120
-108 -251 -44 -108 -171 -499 -171 -527 0 -6 -6 -33 -14 -59 -23 -80 -44 -164
-60 -249 -36 -185 -46 -247 -46 -275 0 -17 -8 -72 -17 -122 -15 -80 -18 -163
-18 -588 0 -427 2 -510 18 -605 9 -60 24 -157 33 -215 8 -58 20 -125 26 -150
6 -25 14 -65 18 -90 8 -50 28 -134 40 -165 4 -11 15 -49 24 -85 28 -110 101
-344 126 -405 4 -11 14 -36 20 -55 7 -19 21 -53 30 -75 10 -22 28 -65 40 -95
23 -58 55 -131 96 -217 13 -29 29 -62 34 -75 6 -13 20 -39 31 -58 12 -19 42
-73 67 -120 25 -47 53 -97 63 -112 11 -14 19 -31 19 -37 0 -6 3 -11 8 -11 4 0
12 -9 17 -20 10 -19 86 -141 115 -185 8 -12 28 -43 43 -69 16 -25 33 -46 38
-46 5 0 9 -6 9 -14 0 -8 4 -16 8 -18 4 -1 49 -57 99 -123 51 -66 105 -135 122
-153 17 -18 34 -39 38 -46 9 -16 192 -215 258 -281 75 -74 251 -235 284 -259
18 -14 49 -40 69 -58 21 -19 73 -61 117 -93 44 -33 82 -63 83 -67 2 -5 10 -8
17 -8 7 0 15 -3 17 -8 5 -12 85 -72 96 -72 6 0 12 -3 14 -8 3 -7 155 -112 163
-112 2 0 36 -20 74 -45 38 -25 74 -45 80 -45 6 0 11 -4 11 -10 0 -5 4 -10 10
-10 5 0 71 -34 145 -75 75 -41 142 -75 150 -75 8 0 15 -4 15 -10 0 -5 6 -10
13 -10 6 0 26 -7 42 -16 17 -8 84 -38 150 -66 66 -28 134 -56 150 -63 83 -36
346 -122 485 -160 52 -14 118 -31 145 -39 28 -8 86 -21 130 -31 44 -9 102 -21
129 -27 27 -6 79 -14 115 -19 36 -4 95 -12 131 -18 196 -29 323 -36 685 -36
364 0 498 7 685 37 36 5 94 14 130 18 36 4 85 12 110 18 25 6 83 18 130 27 47
10 114 25 150 35 36 10 108 31 160 45 126 35 405 128 466 155 27 11 60 26 74
32 35 14 75 32 145 63 33 15 80 36 105 47 25 11 53 24 64 30 172 93 320 176
365 206 72 47 93 60 111 69 8 4 43 26 78 50 35 24 65 43 68 43 2 0 12 7 21 15
10 8 81 63 158 122 77 58 142 109 145 112 3 3 25 23 50 45 108 92 221 196 300
276 92 92 250 261 250 267 0 3 39 49 66 77 5 6 58 74 117 151 59 77 114 148
122 158 8 9 15 19 15 21 0 3 19 33 43 68 24 35 46 70 50 78 9 18 22 39 69 111
30 46 84 142 206 365 11 20 59 126 116 259 23 52 34 79 56 129 27 61 120 340
155 466 14 52 35 124 45 160 10 36 25 103 35 150 9 47 21 105 27 130 6 25 14
74 18 110 4 36 13 94 18 130 30 187 37 321 37 685 0 362 -7 489 -36 685 -6 36
-14 95 -18 131 -5 36 -13 88 -19 115 -6 27 -18 85 -27 129 -10 44 -23 103 -31
130 -8 28 -25 93 -39 145 -38 139 -124 402 -160 485 -7 17 -35 84 -63 150 -28
66 -58 134 -66 150 -9 17 -16 36 -16 43 0 6 -4 12 -10 12 -5 0 -10 7 -10 15 0
8 -34 75 -75 150 -41 74 -75 140 -75 145 0 6 -4 10 -10 10 -5 0 -10 5 -10 11
0 6 -20 42 -45 80 -25 38 -45 72 -45 74 0 8 -105 160 -112 163 -5 2 -8 8 -8
14 0 11 -60 91 -72 96 -5 2 -8 10 -8 17 0 7 -3 15 -7 17 -5 2 -35 39 -68 83
-32 44 -74 96 -93 117 -18 20 -44 51 -58 69 -24 33 -185 209 -259 284 -66 66
-265 249 -281 258 -7 4 -28 21 -46 38 -18 17 -87 71 -153 122 -66 50 -121 95
-123 99 -2 4 -10 8 -18 8 -8 0 -14 4 -14 9 0 5 -21 22 -46 38 -26 15 -57 35
-69 43 -44 29 -166 105 -185 115 -11 5 -20 13 -20 17 0 5 -5 8 -11 8 -6 0 -23
8 -37 19 -15 10 -65 38 -112 63 -47 25 -101 55 -120 67 -19 11 -45 25 -58 31
-13 5 -46 21 -75 34 -86 41 -159 73 -217 96 -30 12 -73 30 -95 40 -22 9 -56
23 -75 30 -19 6 -44 16 -55 20 -61 25 -295 98 -405 126 -36 9 -74 20 -85 24
-32 12 -115 32 -170 41 -27 4 -66 12 -85 17 -19 5 -89 17 -155 27 -66 9 -160
24 -210 32 -105 18 -884 27 -1070 13z m790 -61 c979 -71 1960 -472 2721 -1110
137 -115 180 -154 332 -308 465 -468 827 -1019 1065 -1621 253 -639 364 -1303
336 -1994 -64 -1565 -873 -2990 -2186 -3850 -739 -483 -1574 -751 -2450 -785
-1059 -41 -2055 242 -2924 831 -269 181 -602 465 -801 681 -51 55 -98 105
-104 111 -39 40 -190 227 -258 320 -550 742 -870 1591 -946 2511 -15 176 -15
599 -1 770 100 1173 583 2218 1406 3040 794 794 1799 1274 2925 1395 257 28
579 31 885 9z"/>
<path d="M4631 9585 c-1011 -104 -1928 -530 -2650 -1230 -664 -644 -1108
-1475 -1275 -2385 -52 -285 -61 -398 -61 -790 0 -292 4 -394 18 -510 107 -854
421 -1601 955 -2272 138 -173 488 -523 662 -662 511 -406 1082 -693 1685 -846
828 -210 1691 -178 2497 91 1382 461 2452 1576 2854 2976 215 751 227 1556 33
2318 -154 607 -438 1173 -845 1685 -139 175 -489 524 -663 663 -667 531 -1413
845 -2261 953 -176 22 -766 28 -949 9z m-1037 -1846 c42 -37 58 -85 45 -133
-10 -37 -92 -134 -287 -343 l-114 -122 -109 97 -108 97 197 199 c108 109 211
207 227 217 47 30 107 25 149 -12z m-325 -813 l585 -585 -14 -27 c-25 -45
-177 -181 -262 -233 -244 -151 -572 -184 -834 -86 -160 60 -303 191 -379 349
-65 134 -88 251 -82 416 7 201 64 373 173 528 50 71 198 222 218 222 6 0 274
-263 595 -584z m872 266 c48 -44 61 -100 35 -148 -8 -16 -103 -119 -209 -229
l-195 -200 -104 100 -105 100 86 88 c93 95 297 281 340 309 14 10 45 18 69 18
36 0 49 -6 83 -38z m854 -327 c166 -22 267 -41 430 -81 450 -112 793 -283
1233 -618 243 -184 196 -161 497 -241 374 -99 712 -263 964 -468 116 -95 247
-224 316 -312 308 -394 412 -757 321 -1117 -74 -293 -245 -545 -428 -632 -77
-37 -184 -66 -247 -66 -29 0 -44 -11 -113 -84 -161 -173 -341 -272 -553 -307
-90 -14 -260 -7 -353 16 -431 104 -725 477 -725 920 0 568 508 1004 1079 924
375 -52 668 -306 766 -664 17 -65 22 -111 24 -248 2 -184 6 -197 59 -197 27 0
35 6 48 33 27 55 40 164 34 272 -16 273 -110 479 -304 665 -142 137 -270 213
-448 266 -110 32 -328 44 -453 24 -532 -85 -917 -506 -939 -1027 l-6 -123
-1316 0 -1317 0 -1 123 c-2 283 -98 527 -282 720 -159 167 -334 257 -566 293
-102 16 -268 14 -347 -5 -30 -7 -38 -6 -44 8 -14 32 -17 301 -4 379 31 198
123 392 258 547 l36 41 59 -24 c182 -73 416 -99 607 -68 236 40 431 139 610
312 l89 86 6 -28 c46 -207 192 -362 380 -404 27 -6 115 -13 195 -15 80 -2 318
-8 530 -15 680 -20 1161 14 1345 95 55 24 105 75 105 106 0 203 -785 585
-1435 698 -179 32 -319 44 -517 45 -186 1 -187 1 -169 21 9 11 48 56 87 99
l69 79 150 -6 c83 -3 204 -13 270 -22z m-2628 -717 c26 -35 71 -88 100 -119
l52 -55 -55 -74 c-242 -321 -317 -670 -224 -1036 11 -43 21 -79 23 -81 2 -1
19 2 38 8 19 6 95 13 169 16 211 8 366 -29 533 -128 137 -81 299 -274 364
-432 62 -149 87 -338 65 -482 -6 -38 -9 -71 -7 -73 4 -4 2198 -31 2603 -32
l232 0 0 -28 c0 -61 32 -154 98 -284 2 -5 -693 -8 -1545 -9 l-1548 0 -59 -76
c-131 -167 -330 -285 -543 -323 -109 -20 -297 -8 -407 24 -279 83 -512 287
-612 536 -53 131 -67 205 -68 365 0 176 19 275 84 412 53 113 112 194 208 285
l80 75 -13 56 c-51 221 -66 559 -32 730 50 248 173 500 350 717 32 39 59 70
61 70 3 0 26 -28 53 -62z"/>
<path d="M7183 4460 c-234 -42 -439 -241 -488 -475 -19 -88 -18 -142 0 -230
26 -120 74 -207 168 -299 125 -124 247 -176 415 -176 163 0 300 57 417 175
120 119 175 252 175 421 0 310 -247 569 -558 588 -42 3 -100 1 -129 -4z"/>
<path d="M2390 4455 c-216 -49 -392 -214 -456 -430 -26 -87 -24 -230 4 -320
60 -196 231 -359 429 -410 67 -18 190 -19 265 -4 208 43 398 226 452 435 20
78 21 212 1 289 -50 195 -213 366 -404 425 -86 27 -209 33 -291 15z"/>
</g>
</svg>
